PathFileType	4	(X/Y/Z)	./resultDataOpenSim/trcMotMarkerGrf/sub06/qtm-12-05.trc
DataRate	CameraRate	NumFrames	NumMarkers	Units	OrigDataRate	OrigDataStartFrame	OrigNumFrames
250.000000	250.000000	7	24	m	250.000000	65	517
Frame#	Time	L.Toe.Tip			R.Toe.Tip			L.Ankle.Lat			R.Ankle.Lat			L.Ankle.Med			R.Ankle.Med			L.Heel			R.Heel			L.Knee.Lat			R.Knee.Lat			L.Knee.Med			R.Knee.Med			L.Thigh.Upper			R.Thigh.Upper			L.ASIS			R.ASIS			V.Sacral			L.Acromium			R.Acromium			C7			L.Elbow			R.Elbow			L.Wrist.Lat			R.Wrist.Lat
		X1	Y1	Z1	X2	Y2	Z2	X3	Y3	Z3	X4	Y4	Z4	X5	Y5	Z5	X6	Y6	Z6	X7	Y7	Z7	X8	Y8	Z8	X9	Y9	Z9	X10	Y10	Z10	X11	Y11	Z11	X12	Y12	Z12	X13	Y13	Z13	X14	Y14	Z14	X15	Y15	Z15	X16	Y16	Z16	X17	Y17	Z17	X18	Y18	Z18	X19	Y19	Z19	X20	Y20	Z20	X21	Y21	Z21	X22	Y22	Z22	X23	Y23	Z23	X24	Y24	Z24

65	0.256	-1.5132592	0.050131229	-0.13036553	-0.7296225	0.036555496	0.052067212	-1.5037055	0.18140382	-0.15392211	-0.86304433	0.062088462	0.075970891	-1.4876859	0.17829598	-0.071850883	-0.84881052	0.07913045	-0.012107825	-1.5463373	0.23533554	-0.096093895	-0.92064899	0.037272229	0.014794097	-1.1687777	0.36719369	-0.16962655	-0.84328947	0.44797521	0.094998766	-1.1627344	0.35278122	-0.053033787	-0.88401432	0.43185531	-0.024591025	-1.0955896	0.7444733	-0.18162164	-1.0306198	0.77387324	0.1600104	-1.0084743	0.79233127	-0.14999586	-0.96032311	0.82023027	0.085948375	-1.1637295	0.88768563	-0.00011256562	-1.00256	1.2934511	-0.18232828	-1.0071426	1.2627563	0.17993108	-1.0846511	1.3233962	-0.0022581302	-1.02207	0.97366914	-0.26838836	-1.1637952	0.98803244	0.22373085	-0.80784426	0.84534382	-0.24798768	-1.1228046	0.7582702	0.27888546
66	0.26	-1.5045227	0.05297019	-0.13061027	-0.72943346	0.036353584	0.052021296	-1.4932941	0.18447466	-0.15342619	-0.8629852	0.062140101	0.075726526	-1.476644	0.18117552	-0.071488751	-0.84838603	0.078971277	-0.012240774	-1.5342877	0.23953954	-0.095951385	-0.92059828	0.037296343	0.014768716	-1.1563407	0.36652908	-0.170025	-0.8393332	0.44731061	0.095701671	-1.150043	0.35148311	-0.053482554	-0.87831081	0.43188434	-0.024400451	-1.0878398	0.74534293	-0.18087325	-1.0241372	0.77463934	0.16075997	-1.0011479	0.79307237	-0.14899466	-0.95363512	0.82117609	0.086934166	-1.1555536	0.88838769	0.0026628123	-0.9958535	1.2944289	-0.18198207	-1.0003427	1.2636703	0.18024651	-1.0781904	1.3244372	-0.0018792186	-1.0165543	0.97480525	-0.26740165	-1.1558516	0.98809177	0.2244881	-0.80329961	0.84462673	-0.24762952	-1.1129977	0.75862397	0.27980858
67	0.264	-1.4950265	0.05598058	-0.13070815	-0.72930181	0.036196533	0.052000802	-1.4826946	0.18757273	-0.15290278	-0.8628656	0.062022267	0.075578953	-1.4652974	0.18417494	-0.071089045	-0.8479995	0.078867634	-0.012310883	-1.5225682	0.24379259	-0.096780836	-0.92058854	0.037312615	0.014772803	-1.1437481	0.36599233	-0.17043122	-0.83545978	0.44671554	0.096400721	-1.1373103	0.35052163	-0.053826337	-0.8730698	0.43172127	-0.024138853	-1.0801836	0.74640875	-0.18011957	-1.0181015	0.7753918	0.16137429	-0.99388937	0.79398477	-0.14803672	-0.94693326	0.82212336	0.087934819	-1.1480526	0.88920938	0.0044339258	-0.98921	1.2954483	-0.18169079	-0.99357913	1.2646678	0.18054064	-1.0717284	1.3255789	-0.0014901788	-1.0110731	0.97598616	-0.26637864	-1.1479424	0.9881419	0.22523202	-0.79873589	0.84394102	-0.24728503	-1.1027269	0.75905102	0.28072779
68	0.268	-1.4851544	0.05910597	-0.1305082	-0.72921	0.036069894	0.051992414	-1.4718834	0.19074386	-0.15236806	-0.86268744	0.061818483	0.07549347	-1.453755	0.18729519	-0.070632561	-0.84762446	0.078814229	-0.012333979	-1.511172	0.24789005	-0.09786743	-0.92060445	0.037325499	0.014790256	-1.1310783	0.36558846	-0.17083529	-0.83152998	0.44619943	0.097109457	-1.1245224	0.34990996	-0.054053922	-0.86832753	0.43140664	-0.023791587	-1.072635	0.74760669	-0.17934683	-1.0127176	0.77609688	0.16179209	-0.98666565	0.79508684	-0.1470735	-0.9402146	0.82308068	0.088943647	-1.1414961	0.8901541	0.0048276947	-0.98262578	1.2965136	-0.18143886	-0.98685568	1.2657537	0.18082124	-1.0652514	1.326831	-0.0010842588	-1.0056153	0.97720873	-0.26529942	-1.1400235	0.98822037	0.22598461	-0.794308	0.84329705	-0.24699623	-1.0920611	0.75958887	0.28164419
69	0.272	-1.4746551	0.06229658	-0.13009412	-0.72915414	0.035965013	0.05199592	-1.4608111	0.19396351	-0.15181887	-0.86250445	0.061615191	0.075430351	-1.4421046	0.19048322	-0.070090936	-0.84727187	0.078799715	-0.012327064	-1.4999058	0.25152103	-0.098295713	-0.92063307	0.037335823	0.014807763	-1.1183579	0.36532194	-0.17122899	-0.82772294	0.4457291	0.09786786	-1.1116728	0.3496348	-0.054166974	-0.86409312	0.43099247	-0.023350674	-1.0651975	0.74889519	-0.17857687	-1.0077883	0.77680708	0.16206201	-0.97946461	0.79637078	-0.14608662	-0.93350075	0.82405927	0.089952243	-1.1355577	0.89125036	0.0045262613	-0.97610375	1.2976362	-0.18121006	-0.98017356	1.2669245	0.18109049	-1.0587588	1.3281902	-0.00066309885	-1.0002203	0.97847866	-0.26429434	-1.1320329	0.98837278	0.22678055	-0.79013256	0.8427041	-0.24678647	-1.0812722	0.76023928	0.28252997
70	0.276	-1.4631765	0.065443005	-0.12959571	-0.72913207	0.035877331	0.052016453	-1.4493727	0.19712777	-0.15124834	-0.86237201	0.061467838	0.075370724	-1.4303799	0.19364484	-0.069430807	-0.84698113	0.07881056	-0.012299481	-1.4885828	0.25459905	-0.097856884	-0.92066619	0.037341289	0.014820217	-1.1055648	0.36520679	-0.17159686	-0.8243172	0.4452676	0.098726824	-1.0987991	0.34967384	-0.054182968	-0.86036128	0.43053295	-0.02281601	-1.0578645	0.75025289	-0.1778404	-1.0026272	0.77767864	0.16236606	-0.97231511	0.79781155	-0.1451101	-0.92686445	0.82507312	0.090952876	-1.1297325	0.89254516	0.0045846477	-0.96965383	1.2988312	-0.18099466	-0.97353329	1.2681747	0.18134827	-1.0522605	1.3296417	-0.00023074365	-0.99497908	0.97980378	-0.26360153	-1.1239476	0.9886277	0.22762524	-0.7861815	0.84216906	-0.24663471	-1.0706049	0.76097709	0.2833606
71	0.28	-1.4506724	0.068411553	-0.12905672	-0.72913822	0.035808453	0.052059874	-1.437462	0.20009559	-0.15065078	-0.86232473	0.061390007	0.075312876	-1.4184994	0.19668458	-0.068648364	-0.84678002	0.078835204	-0.012254635	-1.4771016	0.25725102	-0.096946112	-0.92070064	0.037340191	0.01482916	-1.0926604	0.36526338	-0.17192883	-0.82136997	0.44481735	0.099718993	-1.0859517	0.35002385	-0.054122771	-0.85711107	0.43007239	-0.022213025	-1.0506228	0.7516727	-0.17714831	-0.99660807	0.77883778	0.16287727	-0.96526194	0.79938745	-0.14419897	-0.9203864	0.8261391	0.091939537	-1.1238004	0.89403954	0.0054509157	-0.9632893	1.3001109	-0.18078439	-0.96694436	1.2695085	0.18160041	-1.0457708	1.3311689	0.00020948962	-0.9899548	0.98118879	-0.26329079	-1.1157933	0.98899975	0.22846813	-0.78234423	0.84169325	-0.24650232	-1.0600698	0.76179369	0.28414035
